<?xml version="1.0" encoding="utf-8"?>
<!-- Svg Vector Icons : http://www.onlinewebfonts.com/icon -->
<!DOCTYPE svg PUBLIC "-//W3C//DTD SVG 1.1//EN" "http://www.w3.org/Graphics/SVG/1.1/DTD/svg11.dtd">
<svg version="1.1" xmlns="http://www.w3.org/2000/svg" xmlns:xlink="http://www.w3.org/1999/xlink" x="0px" y="0px" viewBox="0 0 256 256" enable-background="new 0 0 256 256" xml:space="preserve">
<metadata> Svg Vector Icons : http://www.onlinewebfonts.com/icon </metadata>
<g><g><g><path fill="#000000" d="M116.7,10.3C88.9,13.1,64,24.9,44.4,44.5c-18.8,18.8-29.9,41.5-33.9,69c-0.9,6.3-0.7,24.1,0.3,30.7c2,13.4,5.5,24.5,11.2,36c6.2,12.5,13.1,22,22.9,31.7c9.7,9.7,18.7,16,31.1,22.1c11.7,5.7,21.3,8.8,34.5,10.9c7.4,1.2,25.1,1.4,32,0.5c22.7-3.3,42.9-11.9,59.6-25.4c23.8-19.2,38.8-46.1,43.3-77.5c0.8-5.4,0.8-23.6,0-29.1c-3.9-27.3-15.2-50.3-33.9-69c-18.3-18.3-40.6-29.5-66.9-33.5C138.8,10,122.6,9.6,116.7,10.3z M176.5,79.5c0.8,0.8,0.9,1.5,0.9,7.4v6.5h11.3c10.7,0,11.4,0,12.2,0.9c0.9,0.9,0.9,1.5,0.9,38.7c0,34.5,0,37.8-0.8,38.6c-0.7,0.7-1.7,0.8-12.2,0.8h-11.5v11.2c0,12.2-0.2,13.3-2.6,13.3c-1.3,0-0.5,0.9-13.5-13.3L151,172.4H121H91.1l-1,1.2c-0.5,0.7-2.5,2.9-4.4,4.9c-3.7,3.9-5.1,4.5-6.4,2.6c-0.6-0.9-0.7-2.9-0.7-12.2v-11.2H67.2c-9.9,0-11.5-0.1-12.2-0.8c-0.8-0.7-0.8-2.5-0.8-38.8V80l1-0.7c0.9-0.6,7.4-0.7,60.7-0.7C175,78.6,175.6,78.6,176.5,79.5z"/><path fill="#000000" d="M59.2,118.1v34.4h11.3c10,0,11.4,0.1,12.2,0.8c0.9,0.8,1,1.3,1.1,10.4l0.1,9.6l8.1-8.8c4.4-4.9,8.9-9.5,9.8-10.4l1.7-1.6h34.4h34.4v-34.4V83.7h-56.6H59.2V118.1z M128,101v2.5h-4.3h-4.4l1,2.3l1,2.3h3.4h3.3v2.5v2.5h-3.4c-3.3,0-3.4,0-3.7,1.2c-0.8,3.1-4.8,7.1-8,7.9c-0.6,0.2-1.1,0.4-1.1,0.6c0,0.1,2.6,2.8,5.8,5.8l5.8,5.5l-1.8,1.8l-1.8,1.8l-7.6-7.4c-4.2-4.1-7.8-7.4-8.1-7.4s-0.5-0.9-0.5-2.3v-2.2l3.8-0.2c2.2-0.1,4.5-0.6,5.3-1c1.4-0.7,3.4-2.8,3.4-3.6c0-0.2-2.8-0.4-6.2-0.4h-6.2v-2.5v-2.5h6.2c3.4,0,6.2-0.2,6.2-0.4c0-0.8-2.1-3-3.5-3.6c-0.9-0.4-3.1-0.6-5.3-0.6h-3.7V101v-2.5h12.2H128V101z"/><path fill="#000000" d="M177.4,127.1c0,28,0,28.6-0.9,29.6c-0.9,0.9-1.5,0.9-36.2,0.9H105l-4.5,4.8l-4.5,4.8h28.2h28.2l1.5,1.3c0.8,0.7,5.3,5.4,9.8,10.4l8.3,9.1l0.1-9.6c0.1-9.1,0.1-9.6,1.1-10.4c0.9-0.7,2.2-0.8,12.2-0.8h11.3v-34.4V98.5h-9.7h-9.7V127.1L177.4,127.1z"/></g></g></g>
</svg>